<svg width="18" height="17" viewBox="0 0 18 17" fill="none" xmlns="http://www.w3.org/2000/svg">
<path d="M14.7273 0L10.6364 4.14634V13.2683L14.7273 9.53658V0ZM16.3636 3.31707V14.5122C15.4636 14.222 14.4818 14.0976 13.5 14.0976C12.1091 14.0976 10.1045 14.6366 9 15.3415V4.14634C7.81364 3.23415 6.09545 2.90244 4.5 2.90244C2.90455 2.90244 1.18636 3.23415 0 4.14634V16.2951C0 16.5024 0.204545 16.7098 0.409091 16.7098C0.490909 16.7098 0.531818 16.6683 0.613636 16.6683C1.71818 16.1293 3.31364 15.7561 4.5 15.7561C6.09545 15.7561 7.81364 16.0878 9 17C10.1045 16.2951 12.1091 15.7561 13.5 15.7561C14.85 15.7561 16.2409 16.0049 17.3864 16.6268C17.4682 16.6683 17.5091 16.6683 17.5909 16.6683C17.7955 16.6683 18 16.461 18 16.2537V4.14634C17.5091 3.77317 16.9773 3.52439 16.3636 3.31707ZM7.36364 14.4376C6.34091 14.1722 5.31818 14.0976 4.5 14.0976C3.63273 14.0976 2.60182 14.2551 1.63636 14.5122V5.08341C2.38091 4.75171 3.38727 4.56098 4.5 4.56098C5.61273 4.56098 6.61909 4.75171 7.36364 5.08341V14.4376Z" fill="#F9FAFB"/>
</svg>
